<mxfile host="app.diagrams.net" agent="Mozilla/5.0 (Windows NT 10.0; Win64; x64) AppleWebKit/537.36 (KHTML, like Gecko) Chrome/133.0.0.0 Safari/537.36" version="26.0.16">
  <diagram id="Ht1M8jgEwFfnCIfOTk4-" name="Page-1">
    <mxGraphModel dx="2049" dy="1103" grid="1" gridSize="10" guides="1" tooltips="1" connect="1" arrows="1" fold="1" page="1" pageScale="1" pageWidth="1169" pageHeight="827" math="0" shadow="0">
      <root>
        <mxCell id="0" />
        <mxCell id="1" parent="0" />
        <mxCell id="Pvzh6Ev7fPEDGUTbmpKL-140" value="DB&amp;nbsp; Layer" style="rounded=1;whiteSpace=wrap;html=1;labelPosition=center;verticalLabelPosition=top;align=center;verticalAlign=bottom;" vertex="1" parent="1">
          <mxGeometry x="1800" y="280" width="430" height="390" as="geometry" />
        </mxCell>
        <mxCell id="Pvzh6Ev7fPEDGUTbmpKL-100" style="edgeStyle=orthogonalEdgeStyle;rounded=0;orthogonalLoop=1;jettySize=auto;html=1;" edge="1" parent="1" source="UEzPUAAOIrF-is8g5C7q-109" target="UEzPUAAOIrF-is8g5C7q-114">
          <mxGeometry relative="1" as="geometry" />
        </mxCell>
        <mxCell id="UEzPUAAOIrF-is8g5C7q-109" value="Agent / Admin frontend Client&amp;nbsp;" style="outlineConnect=0;gradientColor=none;fontColor=#545B64;strokeColor=none;fillColor=#879196;dashed=0;verticalLabelPosition=bottom;verticalAlign=top;align=center;html=1;fontSize=12;fontStyle=0;aspect=fixed;shape=mxgraph.aws4.illustration_desktop;pointerEvents=1;labelBackgroundColor=#ffffff;" parent="1" vertex="1">
          <mxGeometry x="260" y="326.1" width="100" height="91" as="geometry" />
        </mxCell>
        <mxCell id="UEzPUAAOIrF-is8g5C7q-114" value="Amazon API&lt;br&gt;Gateway&lt;br&gt;" style="outlineConnect=0;fontColor=#232F3E;gradientColor=#945DF2;gradientDirection=north;fillColor=#5A30B5;strokeColor=#ffffff;dashed=0;verticalLabelPosition=bottom;verticalAlign=top;align=center;html=1;fontSize=12;fontStyle=0;aspect=fixed;shape=mxgraph.aws4.resourceIcon;resIcon=mxgraph.aws4.api_gateway;labelBackgroundColor=#ffffff;" parent="1" vertex="1">
          <mxGeometry x="560" y="333.5" width="78" height="78" as="geometry" />
        </mxCell>
        <mxCell id="Pvzh6Ev7fPEDGUTbmpKL-43" value="RDS" style="outlineConnect=0;dashed=0;verticalLabelPosition=bottom;verticalAlign=top;align=center;html=1;shape=mxgraph.aws3.rds;fillColor=#2E73B8;gradientColor=none;" vertex="1" parent="1">
          <mxGeometry x="1930" y="429.5" width="72" height="81" as="geometry" />
        </mxCell>
        <mxCell id="Pvzh6Ev7fPEDGUTbmpKL-49" value="Knowall Backend VPC" style="rounded=0;whiteSpace=wrap;html=1;labelPosition=center;verticalLabelPosition=top;align=center;verticalAlign=bottom;" vertex="1" parent="1">
          <mxGeometry x="720" y="70" width="880" height="753.5" as="geometry" />
        </mxCell>
        <mxCell id="Pvzh6Ev7fPEDGUTbmpKL-50" value="Amazon EKS" style="sketch=0;outlineConnect=0;fontColor=#232F3E;gradientColor=none;strokeColor=#ffffff;fillColor=#232F3E;dashed=0;verticalLabelPosition=middle;verticalAlign=bottom;align=center;html=1;whiteSpace=wrap;fontSize=10;fontStyle=1;spacing=3;shape=mxgraph.aws4.productIcon;prIcon=mxgraph.aws4.eks;" vertex="1" parent="1">
          <mxGeometry x="730" y="83.5" width="65" height="90" as="geometry" />
        </mxCell>
        <mxCell id="Pvzh6Ev7fPEDGUTbmpKL-68" value="" style="group" vertex="1" connectable="0" parent="1">
          <mxGeometry x="1090" y="93.5" width="360" height="150" as="geometry" />
        </mxCell>
        <mxCell id="Pvzh6Ev7fPEDGUTbmpKL-60" value="Backend service Cluster" style="rounded=0;whiteSpace=wrap;html=1;labelPosition=center;verticalLabelPosition=top;align=center;verticalAlign=bottom;" vertex="1" parent="Pvzh6Ev7fPEDGUTbmpKL-68">
          <mxGeometry width="360" height="150" as="geometry" />
        </mxCell>
        <mxCell id="Pvzh6Ev7fPEDGUTbmpKL-116" value="" style="group" vertex="1" connectable="0" parent="Pvzh6Ev7fPEDGUTbmpKL-68">
          <mxGeometry x="120" y="60" width="190" height="70" as="geometry" />
        </mxCell>
        <mxCell id="Pvzh6Ev7fPEDGUTbmpKL-117" value="" style="rounded=1;whiteSpace=wrap;html=1;" vertex="1" parent="Pvzh6Ev7fPEDGUTbmpKL-116">
          <mxGeometry width="190" height="70" as="geometry" />
        </mxCell>
        <mxCell id="Pvzh6Ev7fPEDGUTbmpKL-118" value="" style="outlineConnect=0;dashed=0;verticalLabelPosition=bottom;verticalAlign=top;align=center;html=1;shape=mxgraph.aws3.emr_cluster;fillColor=#F58534;gradientColor=none;" vertex="1" parent="Pvzh6Ev7fPEDGUTbmpKL-116">
          <mxGeometry x="160" y="9" width="25.5" height="30" as="geometry" />
        </mxCell>
        <mxCell id="Pvzh6Ev7fPEDGUTbmpKL-123" value="" style="outlineConnect=0;dashed=0;verticalLabelPosition=bottom;verticalAlign=top;align=center;html=1;shape=mxgraph.aws3.ec2_compute_container_2;fillColor=#F58534;gradientColor=none;" vertex="1" parent="Pvzh6Ev7fPEDGUTbmpKL-116">
          <mxGeometry x="20" y="26" width="60" height="34.5" as="geometry" />
        </mxCell>
        <mxCell id="Pvzh6Ev7fPEDGUTbmpKL-124" value="" style="outlineConnect=0;dashed=0;verticalLabelPosition=bottom;verticalAlign=top;align=center;html=1;shape=mxgraph.aws3.ec2_compute_container_2;fillColor=#F58534;gradientColor=none;" vertex="1" parent="Pvzh6Ev7fPEDGUTbmpKL-116">
          <mxGeometry x="90" y="26" width="60" height="34.5" as="geometry" />
        </mxCell>
        <mxCell id="Pvzh6Ev7fPEDGUTbmpKL-69" value="" style="group" vertex="1" connectable="0" parent="1">
          <mxGeometry x="1080" y="613.5" width="360" height="150" as="geometry" />
        </mxCell>
        <mxCell id="Pvzh6Ev7fPEDGUTbmpKL-70" value="Chat service&amp;nbsp;&lt;span style=&quot;background-color: transparent; color: light-dark(rgb(0, 0, 0), rgb(255, 255, 255));&quot;&gt;Cluster&lt;/span&gt;" style="rounded=0;whiteSpace=wrap;html=1;labelPosition=center;verticalLabelPosition=top;align=center;verticalAlign=bottom;" vertex="1" parent="Pvzh6Ev7fPEDGUTbmpKL-69">
          <mxGeometry width="360" height="150" as="geometry" />
        </mxCell>
        <mxCell id="Pvzh6Ev7fPEDGUTbmpKL-120" style="edgeStyle=orthogonalEdgeStyle;rounded=0;orthogonalLoop=1;jettySize=auto;html=1;" edge="1" parent="Pvzh6Ev7fPEDGUTbmpKL-69" source="Pvzh6Ev7fPEDGUTbmpKL-93" target="Pvzh6Ev7fPEDGUTbmpKL-114">
          <mxGeometry relative="1" as="geometry" />
        </mxCell>
        <mxCell id="Pvzh6Ev7fPEDGUTbmpKL-93" value="ALB" style="outlineConnect=0;dashed=0;verticalLabelPosition=bottom;verticalAlign=top;align=center;html=1;shape=mxgraph.aws3.classic_load_balancer;fillColor=#F58534;gradientColor=none;" vertex="1" parent="Pvzh6Ev7fPEDGUTbmpKL-69">
          <mxGeometry x="20" y="71" width="40" height="48" as="geometry" />
        </mxCell>
        <mxCell id="Pvzh6Ev7fPEDGUTbmpKL-115" value="" style="group" vertex="1" connectable="0" parent="Pvzh6Ev7fPEDGUTbmpKL-69">
          <mxGeometry x="100" y="60" width="190" height="70" as="geometry" />
        </mxCell>
        <mxCell id="Pvzh6Ev7fPEDGUTbmpKL-114" value="" style="rounded=1;whiteSpace=wrap;html=1;" vertex="1" parent="Pvzh6Ev7fPEDGUTbmpKL-115">
          <mxGeometry width="190" height="70" as="geometry" />
        </mxCell>
        <mxCell id="Pvzh6Ev7fPEDGUTbmpKL-71" value="" style="outlineConnect=0;dashed=0;verticalLabelPosition=bottom;verticalAlign=top;align=center;html=1;shape=mxgraph.aws3.emr_cluster;fillColor=#F58534;gradientColor=none;" vertex="1" parent="Pvzh6Ev7fPEDGUTbmpKL-115">
          <mxGeometry x="160" y="9" width="25.5" height="30" as="geometry" />
        </mxCell>
        <mxCell id="Pvzh6Ev7fPEDGUTbmpKL-121" value="" style="outlineConnect=0;dashed=0;verticalLabelPosition=bottom;verticalAlign=top;align=center;html=1;shape=mxgraph.aws3.ec2_compute_container_2;fillColor=#F58534;gradientColor=none;" vertex="1" parent="Pvzh6Ev7fPEDGUTbmpKL-115">
          <mxGeometry x="10" y="18" width="60" height="34.5" as="geometry" />
        </mxCell>
        <mxCell id="Pvzh6Ev7fPEDGUTbmpKL-122" value="" style="outlineConnect=0;dashed=0;verticalLabelPosition=bottom;verticalAlign=top;align=center;html=1;shape=mxgraph.aws3.ec2_compute_container_2;fillColor=#F58534;gradientColor=none;" vertex="1" parent="Pvzh6Ev7fPEDGUTbmpKL-115">
          <mxGeometry x="80" y="17.75" width="60" height="34.5" as="geometry" />
        </mxCell>
        <mxCell id="Pvzh6Ev7fPEDGUTbmpKL-95" style="edgeStyle=orthogonalEdgeStyle;rounded=0;orthogonalLoop=1;jettySize=auto;html=1;" edge="1" parent="1" source="Pvzh6Ev7fPEDGUTbmpKL-72">
          <mxGeometry relative="1" as="geometry">
            <mxPoint x="1110" y="183.57142857142867" as="targetPoint" />
            <Array as="points">
              <mxPoint x="978" y="276.5" />
              <mxPoint x="978" y="183.5" />
            </Array>
          </mxGeometry>
        </mxCell>
        <mxCell id="Pvzh6Ev7fPEDGUTbmpKL-72" value="Backend ALB" style="points=[];aspect=fixed;html=1;align=center;shadow=0;dashed=0;fillColor=#FF6A00;strokeColor=none;shape=mxgraph.alibaba_cloud.alb_application_load_balancer_02;labelPosition=center;verticalLabelPosition=bottom;verticalAlign=top;" vertex="1" parent="1">
          <mxGeometry x="825" y="246.5" width="60" height="60" as="geometry" />
        </mxCell>
        <mxCell id="Pvzh6Ev7fPEDGUTbmpKL-83" value="Chat service ALB" style="points=[];aspect=fixed;html=1;align=center;shadow=0;dashed=0;fillColor=#FF6A00;strokeColor=none;shape=mxgraph.alibaba_cloud.alb_application_load_balancer_02;labelPosition=center;verticalLabelPosition=bottom;verticalAlign=top;" vertex="1" parent="1">
          <mxGeometry x="825" y="438" width="60" height="60" as="geometry" />
        </mxCell>
        <mxCell id="Pvzh6Ev7fPEDGUTbmpKL-84" style="edgeStyle=orthogonalEdgeStyle;rounded=0;orthogonalLoop=1;jettySize=auto;html=1;entryX=-0.004;entryY=0.491;entryDx=0;entryDy=0;entryPerimeter=0;" edge="1" parent="1" source="UEzPUAAOIrF-is8g5C7q-114" target="Pvzh6Ev7fPEDGUTbmpKL-72">
          <mxGeometry relative="1" as="geometry">
            <Array as="points">
              <mxPoint x="730" y="355.5" />
              <mxPoint x="730" y="275.5" />
            </Array>
          </mxGeometry>
        </mxCell>
        <mxCell id="Pvzh6Ev7fPEDGUTbmpKL-145" value="via VPC link" style="edgeLabel;html=1;align=center;verticalAlign=middle;resizable=0;points=[];" vertex="1" connectable="0" parent="Pvzh6Ev7fPEDGUTbmpKL-84">
          <mxGeometry x="0.4568" y="-4" relative="1" as="geometry">
            <mxPoint as="offset" />
          </mxGeometry>
        </mxCell>
        <mxCell id="Pvzh6Ev7fPEDGUTbmpKL-85" style="edgeStyle=orthogonalEdgeStyle;rounded=0;orthogonalLoop=1;jettySize=auto;html=1;entryX=-0.008;entryY=0.592;entryDx=0;entryDy=0;entryPerimeter=0;" edge="1" parent="1" source="UEzPUAAOIrF-is8g5C7q-114" target="Pvzh6Ev7fPEDGUTbmpKL-83">
          <mxGeometry relative="1" as="geometry">
            <Array as="points">
              <mxPoint x="731" y="383.5" />
              <mxPoint x="731" y="473.5" />
            </Array>
          </mxGeometry>
        </mxCell>
        <mxCell id="Pvzh6Ev7fPEDGUTbmpKL-146" value="via VPC link" style="edgeLabel;html=1;align=center;verticalAlign=middle;resizable=0;points=[];" vertex="1" connectable="0" parent="Pvzh6Ev7fPEDGUTbmpKL-85">
          <mxGeometry x="0.3752" y="-3" relative="1" as="geometry">
            <mxPoint as="offset" />
          </mxGeometry>
        </mxCell>
        <mxCell id="Pvzh6Ev7fPEDGUTbmpKL-96" style="edgeStyle=orthogonalEdgeStyle;rounded=0;orthogonalLoop=1;jettySize=auto;html=1;entryX=0;entryY=0.5;entryDx=0;entryDy=0;entryPerimeter=0;" edge="1" parent="1" source="Pvzh6Ev7fPEDGUTbmpKL-83" target="Pvzh6Ev7fPEDGUTbmpKL-93">
          <mxGeometry relative="1" as="geometry" />
        </mxCell>
        <mxCell id="Pvzh6Ev7fPEDGUTbmpKL-101" value="Event Utilities Cluster (self-hosted?)" style="rounded=0;whiteSpace=wrap;html=1;labelPosition=center;verticalLabelPosition=bottom;align=center;verticalAlign=top;" vertex="1" parent="1">
          <mxGeometry x="1140" y="349.25" width="260" height="96.5" as="geometry" />
        </mxCell>
        <mxCell id="Pvzh6Ev7fPEDGUTbmpKL-104" value="ALB" style="outlineConnect=0;dashed=0;verticalLabelPosition=bottom;verticalAlign=top;align=center;html=1;shape=mxgraph.aws3.application_load_balancer;fillColor=#F58534;gradientColor=none;" vertex="1" parent="1">
          <mxGeometry x="1243.75" y="498" width="32.5" height="30" as="geometry" />
        </mxCell>
        <mxCell id="Pvzh6Ev7fPEDGUTbmpKL-109" style="edgeStyle=orthogonalEdgeStyle;rounded=0;orthogonalLoop=1;jettySize=auto;html=1;entryX=0.537;entryY=0.01;entryDx=0;entryDy=0;entryPerimeter=0;" edge="1" parent="1" source="Pvzh6Ev7fPEDGUTbmpKL-108" target="Pvzh6Ev7fPEDGUTbmpKL-101">
          <mxGeometry relative="1" as="geometry" />
        </mxCell>
        <mxCell id="Pvzh6Ev7fPEDGUTbmpKL-108" value="ALB" style="outlineConnect=0;dashed=0;verticalLabelPosition=bottom;verticalAlign=top;align=center;html=1;shape=mxgraph.aws3.application_load_balancer;fillColor=#F58534;gradientColor=none;" vertex="1" parent="1">
          <mxGeometry x="1253.75" y="276.5" width="32.5" height="30" as="geometry" />
        </mxCell>
        <mxCell id="Pvzh6Ev7fPEDGUTbmpKL-110" style="edgeStyle=orthogonalEdgeStyle;rounded=0;orthogonalLoop=1;jettySize=auto;html=1;entryX=0.5;entryY=0;entryDx=0;entryDy=0;entryPerimeter=0;" edge="1" parent="1" source="Pvzh6Ev7fPEDGUTbmpKL-60" target="Pvzh6Ev7fPEDGUTbmpKL-108">
          <mxGeometry relative="1" as="geometry" />
        </mxCell>
        <mxCell id="Pvzh6Ev7fPEDGUTbmpKL-111" value="" style="image;sketch=0;aspect=fixed;html=1;points=[];align=center;fontSize=12;image=img/lib/mscae/Cache_Redis_Product.svg;" vertex="1" parent="1">
          <mxGeometry x="1150" y="360.4" width="30" height="25.2" as="geometry" />
        </mxCell>
        <mxCell id="Pvzh6Ev7fPEDGUTbmpKL-112" value="" style="points=[];aspect=fixed;html=1;align=center;shadow=0;dashed=0;fillColor=#FF6A00;strokeColor=none;shape=mxgraph.alibaba_cloud.kafka;" vertex="1" parent="1">
          <mxGeometry x="1150" y="391.31" width="29.95" height="22.19" as="geometry" />
        </mxCell>
        <mxCell id="Pvzh6Ev7fPEDGUTbmpKL-113" value="" style="image;aspect=fixed;html=1;points=[];align=center;fontSize=12;image=img/lib/azure2/other/Grafana.svg;" vertex="1" parent="1">
          <mxGeometry x="1190" y="357.6" width="36.06" height="28" as="geometry" />
        </mxCell>
        <mxCell id="Pvzh6Ev7fPEDGUTbmpKL-125" style="edgeStyle=orthogonalEdgeStyle;rounded=0;orthogonalLoop=1;jettySize=auto;html=1;" edge="1" parent="1" source="Pvzh6Ev7fPEDGUTbmpKL-70" target="Pvzh6Ev7fPEDGUTbmpKL-104">
          <mxGeometry relative="1" as="geometry" />
        </mxCell>
        <mxCell id="Pvzh6Ev7fPEDGUTbmpKL-127" style="edgeStyle=orthogonalEdgeStyle;rounded=0;orthogonalLoop=1;jettySize=auto;html=1;entryX=0.461;entryY=1.022;entryDx=0;entryDy=0;entryPerimeter=0;" edge="1" parent="1" source="Pvzh6Ev7fPEDGUTbmpKL-104" target="Pvzh6Ev7fPEDGUTbmpKL-101">
          <mxGeometry relative="1" as="geometry" />
        </mxCell>
        <mxCell id="Pvzh6Ev7fPEDGUTbmpKL-143" style="edgeStyle=orthogonalEdgeStyle;rounded=0;orthogonalLoop=1;jettySize=auto;html=1;entryX=0;entryY=0.5;entryDx=0;entryDy=0;entryPerimeter=0;" edge="1" parent="1" source="Pvzh6Ev7fPEDGUTbmpKL-60" target="Pvzh6Ev7fPEDGUTbmpKL-43">
          <mxGeometry relative="1" as="geometry" />
        </mxCell>
        <mxCell id="Pvzh6Ev7fPEDGUTbmpKL-144" style="edgeStyle=orthogonalEdgeStyle;rounded=0;orthogonalLoop=1;jettySize=auto;html=1;" edge="1" parent="1" source="Pvzh6Ev7fPEDGUTbmpKL-70" target="Pvzh6Ev7fPEDGUTbmpKL-43">
          <mxGeometry relative="1" as="geometry" />
        </mxCell>
      </root>
    </mxGraphModel>
  </diagram>
</mxfile>
